<svg width="369" height="240" viewBox="0 0 369 240" fill="none" xmlns="http://www.w3.org/2000/svg">
<path d="M65.0711 98.4894C68.6201 58.0096 87.977 34.7855 113.957 18.4285C147.643 -2.78081 189.945 0.159659 225.413 13.5158C246.495 21.4548 261.367 35.7927 271.712 42.0733C287.691 51.7745 296.894 47.5006 311.613 60.1763C341.236 85.6887 339.433 127.693 324.913 163.992C304.963 213.868 233.245 235.897 168.266 223.843C102.529 211.649 59.2318 165.092 65.0711 98.4894Z" fill="#C1D3FE"/>
<g opacity="0.4">
<path opacity="0.4" d="M245.582 148.869C258.173 116.698 283.466 89.5185 314.972 75.2632C324.013 71.1586 334.22 68.2188 344.204 70.0492C352.469 71.5469 360.4 76.3171 363.895 84.249C371.05 100.279 366.058 119.693 353.301 131.23C340.543 142.768 322.183 147.649 305.321 145.652C304.211 145.541 304.211 147.261 305.321 147.372C321.185 149.258 338.213 145.097 350.971 135.391C365.06 124.685 371.55 107.379 367.611 90.0177C365.781 82.0858 361.454 75.5405 354.188 71.6578C346.922 67.775 336.66 66.943 327.841 68.9953C318.134 71.214 308.926 75.8733 300.495 81.0319C274.773 96.7291 254.9 120.42 243.918 148.481C243.529 149.535 245.193 149.979 245.582 148.925V148.869Z" fill="#659FEB"/>
<g opacity="0.4">
<path opacity="0.4" d="M251.629 149.147C267.826 122.355 290.29 97.7276 319.91 87.4661C325.568 85.5247 331.558 84.0825 337.549 84.6927C343.539 85.3028 349.474 88.1871 352.636 93.2347C355.798 98.2823 355.798 104.606 354.356 110.263C351.804 120.303 344.926 128.845 336.661 135.058C328.397 141.27 318.745 145.486 308.983 149.036" fill="#659FEB"/>
<path opacity="0.4" d="M252.405 149.59C265.495 128.069 282.413 107.823 304.656 95.3426C315.749 89.0747 331.558 81.7529 344.204 87.3552C358.737 93.7895 355.187 111.595 347.865 122.3C338.713 135.723 323.459 142.768 308.76 148.204C307.707 148.592 308.15 150.256 309.204 149.868C323.016 144.765 337.049 138.386 346.645 126.793C354.189 117.641 360.734 101.999 352.303 91.2934C342.929 79.4232 325.734 83.8607 314.03 88.7419C301.383 94.0113 290.068 101.999 280.139 111.428C268.657 122.355 259.117 135.113 250.907 148.647C250.297 149.59 251.85 150.478 252.405 149.535V149.59Z" fill="#659FEB"/>
</g>
<path opacity="0.4" d="M224.67 196.904C226.833 208.331 231.936 219.147 240.922 226.746C248.41 233.07 257.784 236.73 267.38 238.505C278.197 240.447 290.899 241.223 301.049 236.231C313.585 230.13 316.414 216.152 321.295 204.393C327.23 190.082 336.715 174.884 352.413 170.335C353.467 170.002 353.023 168.338 351.969 168.671C339.877 172.166 331.501 181.595 325.455 192.245C322.352 197.726 319.717 203.46 317.579 209.385C315.249 215.819 313.086 222.642 308.704 228.022C300.273 238.45 285.962 238.894 273.648 237.618C263.941 236.62 254.179 233.902 246.025 228.41C234.987 221.033 228.83 209.274 226.445 196.461C226.223 195.351 224.559 195.851 224.781 196.904H224.67Z" fill="#659FEB"/>
<g opacity="0.4">
<path opacity="0.4" d="M233.432 149.646C233.432 149.813 233.392 149.977 233.316 150.125C233.24 150.274 233.13 150.402 232.994 150.499C232.859 150.597 232.702 150.661 232.537 150.686C232.373 150.711 232.204 150.697 232.046 150.644C226.055 132.562 226.943 113.037 226 94.0113C225.057 74.9858 221.784 54.8509 209.304 40.4847C203.979 34.3832 196.713 29.391 188.67 29.0028C180.627 28.6145 171.974 33.884 170.587 41.8714C170.088 44.9221 170.587 48.0283 170.809 51.1345C171.222 56.7393 170.64 62.3729 169.09 67.7749C168.59 69.5499 167.925 71.3249 166.593 72.6006C162.988 75.9287 157.053 73.4327 152.394 74.8748C149.177 75.8732 146.847 78.6466 145.349 81.6419C142.52 87.3551 142.243 94.1222 143.852 100.279C145.46 106.436 148.677 112.094 152.56 117.141C164.064 131.932 180.684 141.884 199.153 145.042" fill="#659FEB"/>
<path opacity="0.4" d="M232.547 149.424L231.992 149.812L232.824 150.478C225.391 127.625 228.664 103.385 225.613 79.9223C223.228 61.396 215.962 38.5432 197.325 30.3339C189.504 26.8949 180.019 27.616 173.806 33.9393C172.369 35.4114 171.241 37.1562 170.488 39.0709C169.736 40.9857 169.374 43.0317 169.424 45.0884C169.424 48.1946 169.979 51.3008 169.979 54.407C170.007 57.8376 169.654 61.2607 168.925 64.6131C168.315 67.3311 167.76 70.7701 165.32 72.4341C162.879 74.0982 159.717 73.5989 156.944 73.5989C152.617 73.5435 149.067 74.8192 146.294 78.3137C139.971 86.4675 141.135 98.2267 145.185 107.102C154.614 127.847 176.857 142.157 198.767 145.985C199.876 146.151 200.32 144.487 199.21 144.321C179.963 140.993 161.991 129.954 150.953 113.758C144.796 104.772 140.803 92.6245 145.961 82.1965C147.126 79.8668 148.79 77.5926 151.175 76.3723C153.56 75.152 156.334 75.3739 158.941 75.3739C161.548 75.3739 165.819 75.152 167.927 72.2122C170.034 69.2724 171.144 62.8936 171.476 58.5671C171.689 55.9459 171.689 53.3118 171.476 50.6907C171.255 47.6399 170.7 44.4782 171.421 41.4275C173.695 31.5542 185.51 28.1706 194.163 30.944C203.814 34.0502 210.914 42.6478 215.463 51.3008C220.011 59.9538 222.507 69.9935 223.783 79.8668C226.889 103.496 223.561 127.902 231.049 150.921C231.097 151.107 231.204 151.273 231.354 151.393C231.504 151.513 231.689 151.581 231.881 151.587C233.157 151.587 233.712 151.088 234.1 149.923C234.488 148.758 232.769 148.37 232.436 149.479L232.547 149.424Z" fill="#659FEB"/>
</g>
<path opacity="0.4" d="M163.489 64.7242C146.294 63.5594 134.257 80.0888 135.811 96.1746C137.53 114.424 152.174 127.126 168.37 133.449C169.424 133.837 169.868 132.173 168.814 131.785C153.782 125.905 139.971 114.257 137.696 97.3948C136.643 89.4075 138.528 81.1427 143.909 74.9858C149.289 68.8288 155.945 65.9445 163.489 66.4437C164.598 66.4992 164.598 64.7797 163.489 64.7242V64.7242Z" fill="#659FEB"/>
<g opacity="0.4">
<path opacity="0.4" d="M195.494 136.999C185.121 134.336 167.871 140.05 157.165 140.438C146.46 140.826 135.477 144.265 128.155 152.086C124.883 155.581 122.387 160.906 124.772 165.066C125.716 166.562 127.036 167.786 128.599 168.616C136.808 173.386 147.181 171.445 156.444 173.497C160.327 174.329 164.487 176.381 165.541 180.208C166.872 185.034 162.546 190.137 164.099 194.908C164.986 197.625 167.704 199.4 170.533 199.9C173.362 200.399 176.191 199.844 178.964 199.068C185.343 197.237 191.389 194.02 195.993 189.25C200.597 184.48 203.536 177.934 203.315 171.334C203.148 166.286 220.454 139.994 218.291 135.446" fill="#659FEB"/>
<path opacity="0.4" d="M195.771 136.167C187.506 134.225 178.631 136.333 170.478 137.775C166.096 138.552 161.714 139.328 157.221 139.55C152.633 139.713 148.085 140.458 143.687 141.769C135.755 144.265 126.27 149.59 123.552 158.077C120.445 167.728 131.428 171.666 138.972 172.609C146.515 173.552 167.26 171.611 164.653 184.59C163.877 188.307 161.88 192.134 163.655 195.906C165.43 199.678 169.257 200.953 172.918 200.953C181.904 200.898 192.11 195.24 197.823 188.473C200.873 184.905 202.937 180.603 203.814 175.993C204.313 173.33 203.98 170.834 204.979 168.283C207.53 161.738 211.302 155.581 214.464 149.313C215.904 146.542 217.182 143.69 218.291 140.771C218.846 139.162 219.789 136.888 219.068 135.168C218.346 133.449 216.96 134.614 217.404 135.612C217.847 136.611 217.126 138.774 216.682 140.05C215.752 142.532 214.678 144.958 213.465 147.316C210.858 152.585 208.029 157.744 205.422 163.013C204.494 164.828 203.678 166.699 202.982 168.616C202.15 171.001 202.483 173.441 202.039 175.937C200.153 186.033 191.777 193.243 182.57 196.849C178.132 198.568 172.142 200.621 167.704 197.847C163.267 195.074 165.375 189.472 166.317 185.034C167.982 177.269 161.769 173.386 154.891 172.276C146.183 170.834 134.146 172.942 127.102 166.452C122.387 162.126 125.77 155.802 129.431 152.086C132.629 148.935 136.418 146.446 140.58 144.764C149.233 141.159 158.607 141.603 167.704 140.05C176.801 138.496 186.397 135.779 195.327 137.886C196.437 138.164 196.88 136.444 195.771 136.222V136.167Z" fill="#659FEB"/>
</g>
<path opacity="0.4" d="M162.601 173.552C162.878 176.714 161.602 179.876 160.493 182.76C159.384 185.644 157.831 189.361 156.999 192.855C156.444 195.129 156.111 197.57 157.11 199.789C158.552 203.117 161.547 205.502 164.764 206.944C180.184 213.877 197.879 203.172 206.088 190.193C211.635 181.429 214.131 171.167 214.907 160.906C215.018 159.796 213.243 159.796 213.188 160.906C211.912 177.269 205.589 194.297 190.668 202.784C183.956 206.611 175.58 208.497 168.037 206.278C164.32 205.169 160.382 202.839 158.774 199.123C157.72 196.571 158.552 193.632 159.328 191.08C161.048 185.533 164.931 179.487 164.376 173.497C164.265 172.387 162.545 172.387 162.656 173.497L162.601 173.552Z" fill="#659FEB"/>
<g opacity="0.4">
<path opacity="0.4" d="M215.074 141.492C218.125 149.146 233.268 199.456 237.483 206.5C240.146 211.049 243.086 215.541 247.024 219.036C250.962 222.53 256.675 225.47 262 227.744C269.599 230.962 278.53 233.624 285.74 229.63C291.953 226.191 294.782 218.481 294.504 211.381C294.227 204.281 284.631 146.04 281.802 139.55" fill="#659FEB"/>
<path opacity="0.4" d="M214.242 141.714C219.012 153.806 222.451 166.563 226.5 178.933C230.549 191.302 234.321 206.445 243.806 216.984C247.855 221.477 253.014 224.583 258.505 227.079C263.997 229.575 268.933 231.627 274.535 232.293C285.407 233.569 293.616 226.635 295.225 215.985C295.946 211.215 295.003 206.334 294.282 201.564C293.284 194.519 292.119 187.475 290.954 180.486C289.512 171.833 288.014 163.18 286.295 154.527C285.296 149.535 284.686 144.043 282.745 139.273C282.301 138.275 280.637 138.718 281.081 139.717C282.578 143.322 283.133 147.482 283.91 151.254C285.296 158.077 286.517 164.899 287.737 171.777C289.9 184.202 292.23 196.738 293.561 209.329C294.449 217.871 291.009 227.855 281.857 230.241C275.922 231.738 269.543 229.797 263.997 227.578C258.45 225.359 252.071 222.42 247.356 218.038C236.984 208.442 233.434 194.02 229.107 181.096C224.781 168.172 221.12 154.194 215.961 141.159C215.573 140.105 213.853 140.604 214.297 141.603L214.242 141.714Z" fill="#659FEB"/>
</g>
<g opacity="0.4">
<path opacity="0.4" d="M273.15 122.078C276.867 115.145 280.638 108.156 282.524 100.501C284.41 92.8465 284.133 84.4154 280.084 77.6483C279.351 76.2433 278.261 75.0568 276.922 74.2093C275.535 73.4327 273.705 73.3218 272.485 74.3202C271.264 75.3186 271.042 76.428 270.654 77.6483L267.825 86.8005C267.673 87.437 267.368 88.027 266.938 88.52C265.884 89.5739 263.998 89.1302 262.833 88.1317C261.668 87.1333 260.947 85.7466 259.782 84.8037C256.787 82.2521 251.85 83.3615 249.243 86.3013C246.636 89.2411 253.459 139.273 253.625 143.211" fill="#659FEB"/>
<path opacity="0.4" d="M273.869 122.522C280.747 109.82 288.402 94.6213 282.189 80.0332C281.08 77.3708 279.416 74.2645 276.587 73.1552C275.609 72.7264 274.513 72.6467 273.483 72.9294C272.453 73.2121 271.552 73.8402 270.929 74.7083C268.877 77.7036 268.322 82.141 267.269 85.5246C267.178 86.0458 267.009 86.5506 266.769 87.0222C266.391 87.3628 265.938 87.6104 265.447 87.7452C264.956 87.88 264.44 87.8983 263.94 87.7987C263.053 87.5214 262.276 86.1347 261.666 85.4691C260.833 84.4043 259.746 83.5653 258.505 83.0285C255.287 81.7527 249.463 83.0285 248.188 86.6894C247.411 88.9081 247.799 91.7924 247.91 94.0666C248.243 103.108 249.297 112.149 250.295 121.135C251.127 128.457 252.459 135.89 252.791 143.267C252.847 144.376 254.566 144.376 254.511 143.267C254.289 138.108 253.402 132.894 252.791 127.791C251.848 119.36 250.85 110.984 250.184 102.553C249.907 99.1142 249.63 95.6197 249.574 92.1252C249.574 90.6276 249.241 88.2979 249.963 86.8558C251.793 83.5277 257.562 83.7496 259.836 86.0792C262.11 88.4089 262.887 90.2948 265.66 90.0175C271.54 89.4073 269.265 71.3247 276.476 74.9856C279.86 76.7051 281.413 81.9746 282.134 85.4136C282.953 89.5894 282.953 93.8846 282.134 98.0603C280.581 106.491 276.421 114.146 272.372 121.634C271.817 122.633 273.315 123.52 273.869 122.522V122.522Z" fill="#659FEB"/>
</g>
</g>
<path d="M117.839 83.8607C137.641 99.5581 171.587 74.8194 171.587 74.8194L178.576 68.8288C187.008 65.057 189.836 62.1172 189.836 62.1172L184.345 64.6687L190.89 59.5102C191.057 59.3438 190.28 59.4547 190.114 59.5657L183.957 62.7273L190.28 57.1251C190.307 57.0989 190.324 57.0645 190.328 57.0275C190.333 56.9905 190.325 56.953 190.306 56.921C190.287 56.889 190.257 56.8644 190.223 56.8511C190.188 56.8378 190.149 56.8366 190.114 56.8477L182.515 61.0078C182.515 61.0078 188.45 55.5165 187.507 55.6829C186.564 55.8493 178.743 61.2852 178.743 61.2852C178.743 61.2852 181.96 56.0712 181.017 56.3485C180.074 56.6259 177.911 59.6766 176.247 61.8953C174.583 64.114 175.47 63.7812 173.917 64.6687L162.713 71.3249C153.283 77.0936 136.587 81.531 123.996 71.103C123.996 71.103 119.226 68.607 115.066 73.6545C110.905 78.7021 117.839 83.8607 117.839 83.8607Z" fill="#EABAAB" stroke="#EABAAB" stroke-width="1.48" stroke-linecap="round" stroke-linejoin="round"/>
<path d="M147.304 76.7048C139.76 77.7032 133.316 75.374 124.053 71.103C124.053 71.103 119.282 68.6069 115.122 73.6545C110.962 78.7021 117.896 83.9161 117.896 83.9161C124.552 89.1856 129.286 91.7612 137.329 90.3745L147.304 76.7048Z" fill="#4E75F1" stroke="#4E75F1" stroke-width="0.6" stroke-miterlimit="10"/>
<path d="M147.292 76.5945L143.299 88.4646C141.657 88.8387 139.987 89.0799 138.307 89.1857L147.292 76.5945Z" fill="#3E65E1"/>
<path d="M174.528 63.7256C174.861 64.2803 175.139 65.1123 174.75 65.3342C174.362 65.556 173.53 65.0568 173.197 64.5021" fill="#EBA793"/>
<path d="M180.018 59.8985L179.131 62.3391L182.681 58.1235L180.018 59.8985Z" fill="#EBA793"/>
<path d="M112.458 24.0662C118.338 25.8966 133.037 45.7542 133.037 45.7542C135.585 48.0916 137.365 51.1476 138.14 54.5181C138.361 55.7939 137.529 59.4548 136.531 60.2313L116.951 76.0952C116.951 76.0952 101.198 70.4929 105.025 58.3454C108.852 46.1979 112.014 48.8049 110.184 41.8159C108.353 34.827 112.458 24.0662 112.458 24.0662Z" fill="#0B2462"/>
<path d="M137.308 53.1869C135.977 49.7479 134.701 46.2534 132.76 43.0917C130.838 40.0938 128.726 37.2221 126.437 34.4942C122.998 30.1677 118.671 26.8951 114.4 23.4006C114.067 23.1233 113.568 23.6225 113.901 23.8998C117.839 27.117 121.944 30.1677 125.216 34.1059C127.532 36.8396 129.681 39.7107 131.651 42.7035C133.814 46.0316 135.145 49.6924 136.587 53.4088C136.754 53.8525 137.419 53.6307 137.253 53.2424L137.308 53.1869Z" fill="#0B2462"/>
<path d="M124.44 55.4056C124.388 55.4564 124.318 55.4848 124.246 55.4848C124.173 55.4848 124.103 55.4564 124.051 55.4056C123.608 54.9064 122.443 53.797 121.001 54.9064C119.559 56.0157 121.112 58.068 121.555 59.011C121.999 59.9539 122.665 64.5578 121.223 67.9413C120.169 70.4374 115.953 74.8194 115.953 74.8194C115.953 74.8194 121.777 81.3091 125.993 78.4803C125.993 78.4803 126.437 69.328 127.823 67.5531C127.879 67.4976 131.484 69.6608 135.533 63.5594C139.582 57.4579 135.589 54.1853 134.646 53.4087C133.703 52.6322 130.208 49.3595 124.44 55.4056Z" fill="#EABAAB"/>
<path d="M126.214 74.7639C126.048 74.7639 120.279 77.5928 120.279 77.5928C120.279 77.5928 122.942 80.3107 125.937 78.4248L126.214 74.7639Z" fill="#EBA793"/>
<path d="M134.091 64.9462L130.819 63.1157C130.819 63.1157 130.763 65.1126 131.817 65.5008C132.871 65.8891 134.091 64.9462 134.091 64.9462Z" fill="white"/>
<path d="M123.497 56.2374C123.053 55.7937 122.221 55.5718 121.777 56.0156C121.585 56.2775 121.49 56.5987 121.511 56.9232C121.531 57.2476 121.664 57.5546 121.888 57.7905" fill="#EBA793"/>
<path d="M133.98 62.1172L132.871 63.6703L133.759 64.0586C133.795 64.0799 133.836 64.0906 133.878 64.0895C133.919 64.0884 133.96 64.0755 133.995 64.0523C134.03 64.0291 134.057 63.9966 134.074 63.9584C134.091 63.9203 134.097 63.8781 134.091 63.8367L133.98 62.1172Z" fill="#EBA793"/>
<path d="M138.068 54.9073C138.068 54.9073 127.714 58.179 123.997 55.4056C120.281 52.6322 129.932 45.3659 133.538 49.6924C137.143 54.0189 138.068 54.9073 138.068 54.9073Z" fill="#061D56"/>
<path d="M127.713 67.4977C126.304 66.7531 125.161 65.5904 124.44 64.1696C123.774 62.8384 123.774 69.2727 126.659 70.8258C126.714 70.8258 127.213 69.0508 127.713 67.4977Z" fill="#EBA793"/>
<path d="M132.705 58.5117C132.456 58.2944 133.26 57.8461 133.704 57.9571C133.915 57.9976 134.102 58.1185 134.226 58.2944C134.351 58.4702 134.402 58.6873 134.369 58.9C134.194 59.0223 133.991 58.4872 133.634 58.417C133.243 58.3404 132.97 58.5117 132.705 58.5117Z" fill="#061D56"/>
<path d="M133.361 61.1326C133.611 60.6165 133.596 59.901 133.361 59.7876C133.127 59.6743 132.541 60.0998 132.291 60.6158C132.042 61.1319 132.057 61.7944 132.291 61.9077C132.808 62.1661 133.112 61.6486 133.361 61.1326Z" fill="black"/>
<path d="M133.361 61.1326C133.611 60.6165 133.596 59.901 133.361 59.7876C133.127 59.6743 132.541 60.0998 132.291 60.6158C132.042 61.1319 132.057 61.7944 132.291 61.9077C132.808 62.1661 133.112 61.6486 133.361 61.1326Z" fill="white"/>
<path d="M133.129 61.3721C133.334 60.9477 133.344 60.5281 133.151 60.4349C132.958 60.3416 132.635 60.61 132.43 61.0344C132.225 61.4587 132.215 61.8783 132.408 61.9716C132.601 62.0648 132.923 61.7964 133.129 61.3721Z" fill="black"/>
<path d="M133.129 61.3721C133.334 60.9477 133.344 60.5281 133.151 60.4349C132.958 60.3416 132.635 60.61 132.43 61.0344C132.225 61.4587 132.215 61.8783 132.408 61.9716C132.601 62.0648 132.923 61.7964 133.129 61.3721Z" fill="black"/>
<path d="M136.193 62.2231C136.443 61.7071 136.428 60.9916 136.193 60.8782C135.959 60.7648 135.373 61.1904 135.123 61.7064C134.874 62.2224 134.889 62.8849 135.123 62.9983C135.64 63.2567 135.944 62.7392 136.193 62.2231Z" fill="black"/>
<path d="M136.193 62.2231C136.443 61.7071 136.428 60.9916 136.193 60.8782C135.959 60.7648 135.373 61.1904 135.123 61.7064C134.874 62.2224 134.889 62.8849 135.123 62.9983C135.64 63.2567 135.944 62.7392 136.193 62.2231Z" fill="white"/>
<path d="M135.961 62.4626C136.166 62.0383 136.176 61.6187 135.983 61.5255C135.79 61.4322 135.467 61.7006 135.262 62.125C135.057 62.5493 135.047 62.9689 135.24 63.0621C135.433 63.1554 135.755 62.887 135.961 62.4626Z" fill="black"/>
<path d="M135.961 62.4626C136.166 62.0383 136.176 61.6187 135.983 61.5255C135.79 61.4322 135.467 61.7006 135.262 62.125C135.057 62.5493 135.047 62.9689 135.24 63.0621C135.433 63.1554 135.755 62.887 135.961 62.4626Z" fill="black"/>
<path d="M137.143 59.8948C136.987 59.7424 136.65 59.5254 136.432 59.5254C136.214 59.5254 135.85 59.5254 135.85 59.7632C135.85 59.8948 136.691 60.129 136.958 60.449" fill="#061D56"/>
<path opacity="0.37" d="M130.321 62.3877C130.621 61.4225 130.083 60.3963 129.118 60.0957C128.152 59.7951 127.126 60.3338 126.826 61.299C126.525 62.2642 127.064 63.2903 128.029 63.591C128.994 63.8916 130.02 63.3529 130.321 62.3877Z" fill="#F99578" stroke="#F99578" stroke-width="0.32" stroke-miterlimit="10"/>
<path d="M122.61 53.3531C124.607 55.6273 126.326 58.1788 129.654 58.1234C132.694 58.0821 135.629 57.006 137.975 55.0726C138.252 54.8508 137.864 54.407 137.586 54.6844C135.332 56.4864 132.54 57.4823 129.654 57.5132C126.548 57.5687 124.884 55.0172 122.998 52.9094C122.776 52.632 122.333 53.0203 122.61 53.2977V53.3531Z" fill="#061D56"/>
<path d="M40.4056 82.1968C39.74 77.8148 39.3517 66.9985 39.3517 66.9985L20.6035 67.997C22.9886 69.1618 31.3643 74.3758 31.3643 74.3758L32.8619 82.7514C32.8619 82.7514 40.4056 82.0858 40.4056 82.1968Z" fill="#EABEB1"/>
<path d="M31.3092 74.3202L20.3265 68.2188C20.2249 68.156 20.144 68.0647 20.0937 67.9564C20.0435 67.848 20.0261 67.7273 20.0439 67.6092C20.0616 67.4911 20.1136 67.3807 20.1934 67.2919C20.2732 67.2031 20.3774 67.1396 20.4929 67.1094L40.5169 64.1141C40.6064 64.1055 40.6968 64.1168 40.7814 64.1473C40.8661 64.1777 40.943 64.2264 41.0066 64.29C41.0702 64.3537 41.1189 64.4305 41.1494 64.5152C41.1798 64.5999 41.1911 64.6902 41.1825 64.7797C40.8497 66.943 40.3505 73.0445 40.0731 74.8194C40.0177 75.0968 36.4123 70.6039 35.192 71.325C33.9717 72.046 31.4201 74.3202 31.3092 74.3202Z" fill="#0B2665" stroke="#0B2665" stroke-width="0.32" stroke-miterlimit="10"/>
<path d="M30.6992 74.0432L32.4187 71.7136C32.5149 71.583 32.584 71.4346 32.6222 71.277C32.6603 71.1193 32.6667 70.9557 32.6408 70.7956C32.615 70.6355 32.5575 70.4822 32.4718 70.3446C32.386 70.2069 32.2737 70.0878 32.1414 69.9941V69.9941C32.0108 69.8979 31.8624 69.8287 31.7047 69.7906C31.5471 69.7524 31.3835 69.7461 31.2234 69.7719C31.0633 69.7977 30.91 69.8552 30.7723 69.941C30.6347 70.0267 30.5156 70.1391 30.4218 70.2714L28.4805 72.8784" stroke="#F8F1EE" stroke-width="0.72" stroke-miterlimit="10"/>
<path d="M36.9672 77.0939C37.0782 79.7009 37.2446 82.3079 37.2446 82.3079L40.5172 82.1415L39.9778 74.8579C39.9778 74.8579 37.3555 72.0315 36.9118 72.087C36.468 72.1425 36.8008 74.4314 36.9118 77.0384" fill="#EC9981"/>
<path d="M26.9831 117.419C24.0988 114.535 21.2144 105.715 21.2144 105.715C21.2144 105.715 1.30143 111.65 1.46783 111.706L13.5599 116.199L20.8262 121.634C20.8262 121.634 26.3175 117.696 26.9831 117.419Z" fill="#EABEB1" stroke="#EABEB1" stroke-width="1.3" stroke-miterlimit="10"/>
<path d="M13.1706 116.476L1.35596 112.094C1.24975 112.045 1.15974 111.967 1.09664 111.869C1.03354 111.77 1 111.656 1 111.539C1 111.422 1.03354 111.308 1.09664 111.21C1.15974 111.111 1.24975 111.033 1.35596 110.984L20.7698 105.16C21.158 105.049 21.8237 105.659 21.9346 106.048C22.6961 108.583 23.6225 111.066 24.708 113.48C24.8189 113.758 17.6081 112.205 16.4987 113.092C15.3894 113.98 13.5035 116.642 13.1706 116.476Z" fill="#0B2665" stroke="#0B2665" stroke-width="0.32" stroke-miterlimit="10"/>
<path d="M12.2281 115.921L13.3929 112.981C13.4563 112.832 13.4893 112.672 13.4901 112.51C13.4909 112.348 13.4594 112.187 13.3974 112.038C13.3354 111.888 13.2443 111.752 13.1292 111.638C13.0142 111.524 12.8775 111.434 12.7273 111.373C12.5782 111.309 12.4179 111.276 12.2558 111.276C12.0938 111.275 11.9332 111.306 11.7834 111.368C11.6337 111.43 11.4978 111.521 11.3837 111.637C11.2696 111.752 11.1795 111.888 11.1187 112.038L9.89844 115.034" stroke="#F8F1EE" stroke-width="0.72" stroke-miterlimit="10"/>
<path d="M22.546 120.858L14.9469 114.756L13.1719 116.476L20.9374 122.078L22.546 120.858Z" fill="#EC9981"/>
<path d="M100.477 102.886C102.862 103.829 104.637 105.826 105.469 109.93C106.301 114.035 110.461 107.379 110.35 111.484C108.742 112.371 99.9221 123.687 96.9269 124.962C83.4481 130.565 73.242 132.95 60.0961 130.287C46.9502 127.625 39.9612 113.092 36.2449 103.441C33.3051 95.8416 33.3605 89.6292 32.0293 81.8636C32.4176 80.9761 40.0167 80.7543 40.405 81.0871C45.5635 97.1173 52.7189 106.048 62.4258 107.878C72.1327 109.709 77.9568 108.211 84.613 106.048C84.613 106.103 92.0457 99.6689 100.477 102.886Z" fill="#3E65E1" stroke="#3E65E1" stroke-width="0.3" stroke-miterlimit="10"/>
<g style="mix-blend-mode:multiply" opacity="0.43">
<g style="mix-blend-mode:multiply" opacity="0.43">
<path d="M62.4824 107.933C71.5792 109.653 78.0135 108.266 84.6696 106.103C84.6696 106.103 92.1023 99.6688 100.533 102.886C102.919 103.829 104.694 105.826 105.526 109.93C106.358 114.035 110.24 107.767 110.129 111.927C108.521 112.815 99.9788 123.742 96.9281 124.962" fill="#3E65E1"/>
</g>
</g>
<path d="M109.574 109.986C105.359 106.103 97.3711 99.8908 96.6501 100.335C89.4392 101.222 82.3948 106.88 79.1222 113.037C78.5056 114.236 77.7417 115.354 76.848 116.365C72.7433 120.913 68.1395 124.907 60.4849 127.847C51.2218 131.397 39.9617 128.179 27.1486 117.308C25.7065 118.805 20.7698 121.135 20.8807 122.133C26.0947 128.013 29.3674 133.005 35.8571 137.942C44.1218 144.21 58.0443 152.752 70.3027 148.203C81.217 144.218 90.7502 137.169 97.7594 127.902L109.574 109.986Z" fill="#4E75F1" stroke="#4E75F1" stroke-width="0.3" stroke-miterlimit="10"/>
<g style="mix-blend-mode:multiply" opacity="0.5">
<path d="M96.2619 129.677C96.2619 129.677 59.3757 165.676 21.4355 121.69C21.4355 121.69 30.255 136.888 48.2821 145.319C49.225 144.709 67.9732 160.961 96.2619 129.677Z" fill="#4E75F1"/>
</g>
<path d="M126.159 75.5405C126.436 76.0397 128.211 89.1302 125.715 93.5121C123.996 96.452 114.4 105.271 110.129 110.652C110.129 110.652 101.42 105.271 96.5391 100.557C97.8703 95.4535 102.474 75.7069 111.848 70.4929C113.819 70.9177 115.763 71.4548 117.672 72.1015C117.672 72.1015 122.775 80.81 126.159 75.5405Z" fill="#EABAAB" stroke="#EABAAB" stroke-width="1.48" stroke-linecap="round" stroke-linejoin="round"/>
<path d="M96.9273 97.6721L96.5391 99.2252L107.133 108.488L96.9273 97.6721Z" fill="#EBA793"/>
<path d="M126.159 75.5405C126.436 76.0397 128.211 89.1302 125.715 93.5121C123.995 96.452 114.399 105.271 110.128 110.652C110.128 110.652 107.466 108.877 95.5957 95.5645C96.9269 90.4614 102.529 75.7069 111.903 70.4929C113.874 70.9177 115.818 71.4548 117.727 72.1015C117.727 72.1015 122.775 80.81 126.159 75.5405Z" fill="#3E65E1" stroke="#3E65E1" stroke-width="1.48" stroke-miterlimit="10"/>
<g style="mix-blend-mode:multiply" opacity="0.2">
<path d="M110.074 110.652C110.074 110.652 107.411 108.877 95.541 95.5647C96.8722 90.4617 102.475 75.7072 111.849 70.4932C113.819 70.918 115.764 71.4551 117.673 72.1017" fill="#3E65E1"/>
<path d="M110.074 110.652C110.074 110.652 107.411 108.877 95.541 95.5647C96.8722 90.4617 102.475 75.7072 111.849 70.4932C113.819 70.918 115.764 71.4551 117.673 72.1017" stroke="#4E75F1" stroke-width="1.48" stroke-linecap="round" stroke-linejoin="round"/>
</g>
<path d="M107.411 77.26C105.581 102.442 145.185 116.531 145.185 116.531L154.06 118.916C161.936 123.798 165.93 124.408 165.93 124.408L160.771 121.302L168.759 123.798C168.981 123.853 168.481 123.298 168.26 123.188L162.158 119.915L170.367 121.967C170.398 121.965 170.428 121.954 170.453 121.935C170.478 121.917 170.498 121.892 170.509 121.863C170.521 121.834 170.524 121.803 170.519 121.772C170.513 121.741 170.499 121.713 170.478 121.69L162.824 117.807C162.824 117.807 170.7 119.638 170.035 118.916C169.369 118.195 161.603 115.145 161.603 115.145C161.603 115.145 164.155 111.373 163.933 111.04C163.711 110.707 160.827 112.094 158.053 112.538C156.278 112.815 143.133 107.213 143.133 107.213C133.037 102.664 120.002 91.3489 121.5 75.1522C121.5 75.1522 120.89 69.7718 114.345 69.2171C107.799 68.6625 107.411 77.26 107.411 77.26Z" fill="#EABAAB"/>
<path d="M129.384 97.2093L117.931 100.165C116.767 99.1658 115.729 98.0537 114.791 96.8398L129.384 97.2093Z" fill="#EBA793"/>
<path d="M129.765 97.1178C124.662 91.46 123.219 85.2476 121.5 75.1525C121.5 75.1525 120.89 69.7721 114.345 69.2174C107.799 68.6627 107.411 77.2602 107.411 77.2602C106.801 85.7468 107.286 90.9604 112.944 96.84L129.765 97.1178Z" fill="#4E75F1" stroke="#4E75F1" stroke-width="0.6" stroke-miterlimit="10"/>
<path d="M340.377 125.462C340.377 125.462 324.18 110.818 295.725 102.553C287.849 100.279 262.944 98.005 260.836 97.8386C258.562 95.2316 242.975 77.5373 236.707 72.6561C213.244 54.5181 202.872 56.6813 191.168 52.4103C187.452 51.0236 183.402 51.3564 181.738 54.9064L139.749 144.487C139.07 145.921 138.949 147.556 139.411 149.074C139.872 150.592 140.883 151.884 142.245 152.696L212.301 193.632H212.412L286.518 225.97C287.977 226.589 289.616 226.643 291.113 226.12C292.61 225.597 293.859 224.535 294.616 223.141L342.263 134.17C344.204 130.731 344.093 126.793 340.377 125.462Z" fill="#13459E" stroke="#13459E" stroke-width="0.3" stroke-miterlimit="10"/>
<path d="M208.086 191.58L216.073 195.74L265.551 98.3933C262.521 98.1654 259.67 96.8678 257.508 94.7324L208.086 191.58Z" fill="#1D2B47" stroke="#1D2B47" stroke-width="0.3" stroke-miterlimit="10"/>
<path d="M334.996 128.901C334.996 128.901 301.604 104.828 259.67 100.057C231.16 69.1617 192.221 56.4041 192.221 56.4041L145.684 146.872C155.002 149.368 205.866 183.87 213.466 189.971V190.137H213.798L214.408 190.692L214.63 190.304C222.008 191.857 255.732 202.174 289.346 219.757L334.996 128.901Z" fill="#CFB2A3"/>
<path d="M236.375 81.7529C236.375 81.7529 240.868 68.607 250.131 64.7242C250.255 64.6701 250.389 64.6469 250.524 64.6564C250.658 64.6659 250.788 64.7079 250.903 64.7789C251.017 64.8498 251.113 64.9475 251.182 65.0636C251.25 65.1797 251.289 65.3107 251.296 65.4453L251.573 68.3851L255.068 68.8843C255.225 68.9059 255.372 68.9719 255.493 69.0746C255.614 69.1773 255.703 69.3123 255.75 69.4639C255.796 69.6154 255.798 69.7771 255.756 69.9299C255.714 70.0827 255.629 70.2203 255.511 70.3265C252.072 73.5436 242.865 83.0286 243.142 86.5231L236.375 81.7529Z" fill="#4E75F1"/>
<g opacity="0.76">
<path opacity="0.76" d="M238.538 81.7532C239.14 79.8805 239.94 78.077 240.923 76.3728C242.089 74.6305 243.387 72.9802 244.805 71.4362C245.36 70.826 244.417 69.8831 243.918 70.5487C242.438 72.1814 241.084 73.9245 239.869 75.7627C238.704 77.5377 238.094 79.4236 237.373 81.4204C237.095 82.197 238.316 82.5298 238.593 81.7532H238.538Z" fill="#F2FCF9"/>
<path opacity="0.76" d="M246.635 69.2173L248.133 67.9415C248.242 67.8195 248.302 67.6615 248.302 67.4978C248.302 67.334 248.242 67.1761 248.133 67.054C248.011 66.9449 247.853 66.8845 247.689 66.8845C247.525 66.8845 247.367 66.9449 247.245 67.054L245.748 68.3298C245.638 68.4518 245.578 68.6098 245.578 68.7735C245.578 68.9373 245.638 69.0952 245.748 69.2173C245.87 69.3264 246.028 69.3868 246.191 69.3868C246.355 69.3868 246.513 69.3264 246.635 69.2173V69.2173Z" fill="#F2FCF9"/>
</g>
<path d="M193.831 59.7874C200.209 58.1788 200.376 59.4546 206.755 61.0632C212.586 62.4378 218.176 64.6816 223.34 67.7193C228.609 70.7701 234.932 75.0966 239.259 79.3121C246.248 86.1347 252.571 92.4581 259.117 99.7244L213.244 188.307C213.244 188.307 169.702 136.056 149.789 145.763L193.831 59.7874Z" fill="#F8F1EE"/>
<path d="M193.995 60.2312C196.381 59.6765 198.599 59.2327 201.04 59.8429C203.48 60.453 205.422 61.1741 207.641 61.7843C212.931 63.1787 218.021 65.248 222.783 67.9412C232.934 73.7654 241.032 81.4754 249.131 89.7956L254.733 95.6198C255.676 96.6182 256.508 97.7276 257.506 98.615C257.173 98.3377 258.838 99.8353 258.782 99.6135C258.727 99.3916 258.172 100.778 258.005 101.056L253.79 109.209L222.007 170.391L212.799 188.085L213.576 187.974C208.302 181.72 202.71 175.74 196.824 170.058C187.561 161.017 177.189 151.476 165.097 146.373C160.215 144.321 154.558 142.989 149.51 145.319L150.176 145.985L165.041 117.03L188.837 70.6037L194.273 60.0093C194.55 59.4546 193.718 58.9554 193.441 59.5101L178.575 88.4644L154.78 134.891L149.344 145.486C149.299 145.579 149.285 145.683 149.302 145.785C149.32 145.887 149.368 145.981 149.441 146.054C149.514 146.127 149.608 146.175 149.71 146.193C149.811 146.21 149.916 146.196 150.009 146.151C154.613 143.988 159.938 145.264 164.375 147.094C170.366 149.59 175.857 153.362 180.96 157.356C190.556 164.844 199.32 173.497 207.474 182.538C209.305 184.535 211.08 186.532 212.855 188.64C212.909 188.692 212.975 188.731 213.047 188.754C213.119 188.777 213.195 188.783 213.27 188.773C213.345 188.762 213.416 188.734 213.478 188.692C213.541 188.65 213.593 188.594 213.631 188.529L229.218 158.521L253.901 110.984L259.614 100.057C259.674 99.9638 259.701 99.8531 259.691 99.7426C259.681 99.6321 259.634 99.5281 259.559 99.4471C249.741 88.5753 239.59 77.3153 227.11 69.4389C221.718 65.9257 215.854 63.1988 209.693 61.3405C206.809 60.5085 203.924 59.5101 201.04 58.8445C198.156 58.1789 196.159 58.7335 193.774 59.2882C193.108 59.4546 193.33 60.3976 193.995 60.2312Z" fill="#F8F1EE"/>
<path d="M282.912 211.326C263.375 198.762 241.131 191.024 218.014 188.751C217.404 188.695 217.404 189.693 218.014 189.749C240.938 192.035 262.991 199.735 282.357 212.213C282.912 212.546 283.411 211.714 282.856 211.381L282.912 211.326Z" fill="#F8F1EE"/>
<path d="M214.022 190.082C238.982 195.129 263.887 203.838 286.019 216.596C286.126 216.629 286.241 216.625 286.345 216.586C286.45 216.546 286.538 216.472 286.596 216.376C286.653 216.28 286.677 216.167 286.663 216.056C286.649 215.945 286.598 215.842 286.518 215.764C264.331 203.006 239.37 194.242 214.299 189.194C213.689 189.083 213.411 190.026 214.022 190.137V190.082Z" fill="#F8F1EE"/>
<path d="M152.397 146.262C158.276 147.26 163.601 150.145 168.76 153.029C173.529 155.691 178.158 158.597 182.627 161.738C191.77 168.195 200.21 175.594 207.809 183.814C208.253 184.258 208.974 183.592 208.53 183.093C200.861 174.829 192.347 167.393 183.126 160.906C178.536 157.678 173.777 154.697 168.87 151.975C163.767 149.146 158.498 146.317 152.674 145.375C152.064 145.264 151.786 146.207 152.397 146.317V146.262Z" fill="#F8F1EE"/>
<path d="M149.844 146.761C173.585 157.189 195.495 172.776 214.298 190.47C214.742 190.914 215.463 190.193 215.019 189.749C196.16 171.944 174.139 156.357 150.344 145.874C149.789 145.596 149.234 146.484 149.844 146.706V146.761Z" fill="#F8F1EE"/>
<path d="M331.947 130.121L297.224 195.629C296.946 196.183 297.778 196.683 298.056 196.128L332.779 130.62C333.056 130.065 332.224 129.566 331.947 130.121V130.121Z" fill="#F8F1EE"/>
<path d="M330.56 128.901C328.12 122.799 326.955 123.409 321.907 119.194C317.347 115.286 312.223 112.088 306.709 109.709C301.162 107.268 293.896 104.661 287.961 103.663C278.309 101.999 269.545 100.945 259.838 99.9463L213.301 188.862C213.301 188.862 283.745 195.24 287.628 217.039L330.56 128.901Z" fill="#F8F1EE"/>
<path d="M331.059 128.734C330.227 126.793 329.395 124.796 327.897 123.243C326.4 121.69 324.07 120.248 322.24 118.806C317.093 114.604 311.379 111.149 305.266 108.544C290.845 102.498 275.203 101 259.783 99.4473C259.696 99.4424 259.609 99.4603 259.531 99.4992C259.453 99.5382 259.387 99.5967 259.339 99.6692L243.641 129.677L218.625 177.546L212.857 188.64C212.819 188.716 212.801 188.8 212.805 188.885C212.809 188.969 212.834 189.051 212.879 189.123C212.923 189.196 212.985 189.255 213.059 189.297C213.133 189.338 213.216 189.36 213.3 189.361C221.121 190.082 228.942 191.247 236.652 192.689C249.909 195.13 263.887 198.125 275.757 204.781C280.639 207.499 285.964 211.382 287.073 217.206C287.104 217.294 287.158 217.371 287.23 217.43C287.303 217.488 287.39 217.525 287.482 217.537C287.575 217.548 287.668 217.534 287.753 217.495C287.837 217.456 287.909 217.394 287.96 217.317L302.382 187.641L325.568 140.05L330.893 129.123C331.17 128.568 330.338 128.069 330.061 128.623L315.639 158.299L292.453 205.89L287.128 216.818L288.016 216.929C285.908 205.946 271.043 200.898 261.946 197.903C249.133 193.687 235.71 191.247 222.397 189.472C219.346 189.084 216.296 188.695 213.245 188.418L213.689 189.139L237.706 143.156L253.792 112.427L258.729 102.942C259.062 102.332 259.394 101.056 259.949 100.612C260.504 100.168 260.06 100.279 260.171 100.168C260.282 100.057 262.445 100.668 261.89 100.612C263.61 100.889 265.385 101 267.16 101.167C280.528 102.72 293.563 104.495 306.043 109.875C311.613 112.358 316.819 115.586 321.519 119.471C323.127 120.803 324.902 121.912 326.511 123.299C328.119 124.685 329.173 126.849 330.061 128.956C330.338 129.566 331.281 129.345 331.059 128.734Z" fill="#F8F1EE"/>
<path opacity="0.42" d="M258.784 100.002C258.784 100.002 231.216 145.375 215.574 151.698C194.052 160.351 166.318 146.761 166.318 146.761C166.318 146.761 208.53 173.996 213.189 188.362L258.784 100.002Z" fill="#E0CFC8"/>
<path opacity="0.42" d="M262.943 99.2256C262.943 99.2256 243.363 148.592 247.8 164.844C253.902 187.253 281.414 201.12 281.414 201.12C281.414 201.12 234.21 183.87 219.955 188.806L262.943 99.2256Z" fill="#E0CFC8"/>
<g opacity="0.46">
<g opacity="0.46">
<path opacity="0.46" d="M196.383 69.7719C197.311 69.6986 198.244 69.7546 199.156 69.9383L200.487 70.2157L201.763 70.604L202.984 71.1032L204.204 71.7133C205.036 72.1596 205.801 72.7196 206.478 73.3774V73.4883L201.43 71.7133L196.438 69.8274L196.383 69.7719Z" fill="#659FEB"/>
<path opacity="0.46" d="M211.857 76.7607L213.244 77.3154L214.63 77.8701L217.293 79.0904L219.9 80.4216L222.451 81.8638L225.003 83.4169L227.499 85.0255L229.884 86.745L232.214 88.52L234.488 90.4059L236.707 92.3473L238.87 94.3996L240.922 96.5074L242.919 98.6706L244.805 100.945L246.58 103.274L248.3 105.66H248.189C238.132 93.6493 225.732 83.816 211.746 76.7607H211.857Z" fill="#659FEB"/>
<path opacity="0.46" d="M190.114 80.8101H192.499L194.884 81.032L197.269 81.4203L199.655 81.9195L201.984 82.5851L204.258 83.3616L206.477 84.2491L208.696 85.2476L210.804 86.4124L212.856 87.6881L214.853 89.0748L216.794 90.5725L218.625 92.1256L220.344 93.7896L221.953 95.5646L223.45 97.4505H223.339C214.509 88.2057 202.749 82.3058 190.059 80.7546L190.114 80.8101Z" fill="#659FEB"/>
<path opacity="0.46" d="M229.33 104.107C230.592 104.635 231.8 105.285 232.935 106.048L234.6 107.157L236.208 108.378L237.706 109.709L239.148 111.096C240.114 112.046 240.987 113.086 241.755 114.202V114.313L235.487 109.321L229.33 104.218V104.107Z" fill="#659FEB"/>
<path opacity="0.46" d="M181.406 104.717C182.737 105.05 184.069 105.382 185.344 105.826L187.286 106.436L189.227 107.102C191.779 108.045 194.33 109.099 196.826 110.208C201.807 112.475 206.593 115.147 211.137 118.196C215.686 121.254 219.972 124.686 223.95 128.457C225.947 130.343 227.833 132.284 229.663 134.281L232.381 137.332L234.988 140.438H234.877C231.106 136.555 227.334 132.617 223.285 129.012C219.228 125.411 214.928 122.093 210.416 119.083C205.926 116.053 201.238 113.329 196.383 110.929C191.531 108.566 186.528 106.528 181.406 104.828V104.717Z" fill="#659FEB"/>
<path opacity="0.46" d="M177.801 114.59C179.408 114.786 180.989 115.158 182.516 115.699L184.79 116.531L186.953 117.53L189.061 118.695L191.058 120.026C192.389 120.944 193.617 122.004 194.719 123.188V123.299C189.374 119.935 183.729 117.076 177.856 114.756L177.801 114.59Z" fill="#659FEB"/>
<path opacity="0.46" d="M201.93 129.289L202.762 129.788L203.595 130.287L205.259 131.341L208.476 133.505L211.582 135.779L214.633 138.164L217.628 140.605L220.568 143.156L223.397 145.819C224.284 146.761 225.227 147.649 226.115 148.592V148.703L213.967 139.051L201.875 129.345L201.93 129.289Z" fill="#659FEB"/>
<path opacity="0.46" d="M184.9 143.433C186.025 143.317 187.161 143.45 188.228 143.822C188.759 143.991 189.278 144.195 189.782 144.432L191.224 145.264L192.555 146.207C192.981 146.554 193.389 146.925 193.775 147.316C194.557 148.097 195.212 148.995 195.717 149.979V150.09C194.148 148.694 192.48 147.415 190.725 146.262C189.852 145.689 188.944 145.17 188.007 144.709C187.063 144.235 186.079 143.845 185.067 143.544L184.9 143.433Z" fill="#659FEB"/>
<path opacity="0.46" d="M199.213 153.75C200.637 154.583 201.991 155.529 203.262 156.579L205.148 158.132L206.923 159.796L208.642 161.516L210.306 163.346C211.408 164.577 212.41 165.894 213.302 167.284V167.395L206.257 160.628L199.268 153.806L199.213 153.75Z" fill="#659FEB"/>
</g>
<g opacity="0.46">
<path opacity="0.46" d="M265.439 112.038C266.492 111.787 267.576 111.694 268.657 111.761L270.21 111.927L271.763 112.205L273.26 112.648L274.703 113.203C275.685 113.623 276.6 114.183 277.421 114.867V114.978C275.479 114.368 273.482 113.758 271.485 113.314C269.489 112.87 267.492 112.427 265.439 112.094V112.038Z" fill="#659FEB"/>
<path opacity="0.46" d="M284.742 117.252C286.295 117.419 287.848 117.751 289.402 118.029L291.731 118.583L294.005 119.249L296.28 120.026L298.498 120.858L300.662 121.856L302.825 122.854L304.933 123.964L306.985 125.129L308.982 126.404L310.923 127.736L312.809 129.178L314.639 130.675C315.804 131.729 317.025 132.783 318.078 133.948V134.059C308.288 126.185 296.919 120.51 284.742 117.419V117.252Z" fill="#659FEB"/>
<path opacity="0.46" d="M260.17 124.075C262.29 123.828 264.433 123.847 266.549 124.13C267.603 124.241 268.657 124.463 269.71 124.685L271.264 125.073L272.817 125.517L274.314 126.072L275.812 126.682C276.755 127.126 277.753 127.569 278.696 128.069C280.579 129.069 282.33 130.298 283.91 131.729V131.84C276.697 127.483 268.57 124.863 260.17 124.186V124.075Z" fill="#659FEB"/>
<path opacity="0.46" d="M292.23 134.947C294.353 135.463 296.431 136.149 298.443 136.999L301.438 138.33L304.322 139.828L307.151 141.436L309.869 143.211C311.675 144.424 313.381 145.778 314.972 147.26V147.371C311.348 145.079 307.632 142.915 303.823 140.882C300.014 138.848 296.169 136.925 292.286 135.113L292.23 134.947Z" fill="#659FEB"/>
<path opacity="0.46" d="M252.792 138.164C253.872 138.123 254.952 138.217 256.009 138.441L257.507 138.774L259.004 139.217L260.446 139.772L261.833 140.438C262.789 140.92 263.683 141.516 264.496 142.213V142.324L258.616 140.327L252.736 138.219L252.792 138.164Z" fill="#659FEB"/>
<path opacity="0.46" d="M268.934 144.376C269.449 144.291 269.973 144.291 270.487 144.376C270.909 144.455 271.318 144.585 271.708 144.764C272.103 144.941 272.475 145.164 272.817 145.43C273.225 145.741 273.581 146.116 273.871 146.539V146.65C272.067 146.309 270.362 145.57 268.879 144.487L268.934 144.376Z" fill="#659FEB"/>
<path opacity="0.46" d="M241.865 157.91L243.696 158.132L245.526 158.41L249.132 159.02L252.737 159.852L256.287 160.795L259.837 161.849L263.331 163.069L266.77 164.4L270.154 165.842C274.652 167.881 278.991 170.254 283.133 172.942L286.184 174.995L289.179 177.158L292.064 179.487L294.837 181.928V182.039C279.289 170.021 261.151 161.797 241.865 158.021V157.91Z" fill="#659FEB"/>
<path opacity="0.46" d="M256.51 173.053C257.679 172.609 258.956 172.531 260.171 172.831C260.775 172.949 261.369 173.116 261.946 173.33L263.61 174.051L265.163 174.994C265.662 175.327 266.161 175.66 266.605 176.048C267.535 176.797 268.373 177.654 269.101 178.6V178.711C267.16 177.435 265.218 176.159 263.166 175.105C262.153 174.555 261.095 174.091 260.004 173.719C258.923 173.316 257.774 173.127 256.621 173.164L256.51 173.053Z" fill="#659FEB"/>
<path opacity="0.46" d="M274.48 181.262C275.964 181.634 277.411 182.135 278.807 182.76L280.859 183.703L282.856 184.757L284.798 185.922L286.683 187.142C287.948 187.999 289.135 188.964 290.233 190.026V190.137L282.357 185.811L274.536 181.373L274.48 181.262Z" fill="#659FEB"/>
</g>
</g>
<path d="M198.712 181.762C193.664 195.962 183.902 204.892 169.869 203.894C158.609 203.117 148.181 197.959 138.03 192.966C134.591 191.247 131.041 189.472 128.434 186.588C124.607 182.372 123.386 176.492 122.277 170.89L119.06 154.194C118.228 149.923 117.34 145.541 114.844 141.991C112.348 138.441 107.8 136.001 103.64 137.332C99.4796 138.663 97.4273 144.765 100.644 147.594C107.522 143.489 107.023 133.394 104.694 125.739C100.795 112.92 94.1724 101.094 85.2798 91.0717C79.1783 84.2491 71.3573 77.9812 62.2051 77.5929C50.3904 77.0382 40.4062 86.3569 33.5836 96.0083C26.761 105.66 21.0478 117.641 20.3267 129.899C19.9385 136.056 21.1588 142.99 26.0954 146.706C31.0321 150.422 40.0733 147.926 40.2952 141.769" stroke="#6D95F8" stroke-width="2.12" stroke-linecap="round" stroke-linejoin="round" stroke-dasharray="9.09 9.09"/>
<g style="mix-blend-mode:lighten">
<path d="M318.022 132.007C321.35 133.394 325.232 132.673 328.339 130.787C331.445 128.901 333.719 126.017 335.66 123.022C338.378 118.75 340.486 113.703 339.432 108.822C338.878 106.215 337.491 103.941 335.938 101.777C334.099 99.0278 331.789 96.6243 329.115 94.6773C326.403 92.8254 323.256 91.7095 319.983 91.4386C316.71 91.1678 313.422 91.7514 310.443 93.1324C307.463 94.5133 304.892 96.6442 302.983 99.3166C301.074 101.989 299.891 105.111 299.551 108.378" stroke="#F8F1EE" stroke-width="2.12" stroke-linecap="round" stroke-linejoin="round" stroke-dasharray="7.33 7.33"/>
</g>
<path d="M363.204 166.528C363.443 165.264 362.612 164.046 361.348 163.807C360.083 163.568 358.865 164.399 358.626 165.663C358.387 166.928 359.218 168.146 360.483 168.385C361.747 168.624 362.965 167.793 363.204 166.528Z" fill="#659FEB"/>
<path d="M339.705 158.054C340.023 156.368 338.915 154.744 337.229 154.425C335.543 154.107 333.919 155.215 333.6 156.901C333.282 158.586 334.39 160.211 336.076 160.53C337.761 160.848 339.386 159.74 339.705 158.054Z" stroke="#659FEB" stroke-width="1.06" stroke-miterlimit="10"/>
<path d="M232.229 57.1063C232.531 55.5109 231.482 53.9732 229.887 53.6718C228.291 53.3703 226.754 54.4193 226.452 56.0146C226.151 57.61 227.2 59.1477 228.795 59.4491C230.39 59.7506 231.928 58.7017 232.229 57.1063Z" fill="#6D95F8"/>
<path d="M213.244 203.854C213.562 202.168 212.454 200.544 210.768 200.225C209.082 199.906 207.458 201.015 207.139 202.7C206.821 204.386 207.929 206.011 209.615 206.329C211.3 206.648 212.925 205.54 213.244 203.854Z" stroke="#6D95F8" stroke-width="1.06" stroke-miterlimit="10"/>
<path d="M134.072 131.763C134.453 129.746 133.127 127.803 131.11 127.421C129.093 127.04 127.149 128.366 126.768 130.383C126.387 132.4 127.713 134.344 129.73 134.725C131.747 135.106 133.691 133.78 134.072 131.763Z" fill="#659FEB" stroke="#659FEB" stroke-width="1.06" stroke-linecap="round" stroke-linejoin="round" stroke-dasharray="9.09 9.09"/>
<path d="M65.589 178.877C66.9369 178.877 68.0296 177.785 68.0296 176.437C68.0296 175.089 66.9369 173.996 65.589 173.996C64.2411 173.996 63.1484 175.089 63.1484 176.437C63.1484 177.785 64.2411 178.877 65.589 178.877Z" fill="#6D95F8"/>
<path d="M10.6754 157.3C12.2683 157.3 13.5597 156.009 13.5597 154.416C13.5597 152.823 12.2683 151.531 10.6754 151.531C9.08238 151.531 7.79102 152.823 7.79102 154.416C7.79102 156.009 9.08238 157.3 10.6754 157.3Z" stroke="#659FEB" stroke-width="0.95" stroke-miterlimit="10"/>
<path d="M323.369 43.851C322.478 43.6371 320.254 45.8356 319.388 45.9103C320.154 42.3254 320.839 39.4746 321.113 37.9387C322.308 32.5721 323.623 28.2709 315.292 26.0819C313.777 25.7183 309.091 28.3619 307.309 27.9341C308.1 26.9934 308.154 25.5929 308.877 24.5417C313.115 19.0578 308.558 11.7447 303.281 10.5717C298.003 9.39869 291.082 15.4632 289.927 20.2739C289.627 21.5212 289.705 22.7649 289.894 23.9409C286.577 23.2385 283.526 22.6002 281.01 22.0904C276.157 21.1134 274.236 22.4424 273.141 26.6081C272.756 28.2117 272.025 30.863 271.255 34.0701C270.361 33.4785 269.445 32.9759 268.287 32.6978C263.387 31.5212 256.652 31.3174 255.479 36.5949C253.411 45.992 258.852 50.4079 263.752 51.5844C264.821 51.8411 265.844 51.8983 266.931 51.6881C266.182 54.8062 263.57 55.875 263.16 57.1899C261.805 62.047 263.526 65.4754 269.384 66.9763C281.122 69.8891 299.656 74.7164 304.998 75.6221C310.34 76.5279 311.68 74.871 313.238 70.3453C313.605 69.2086 314.272 66.8246 314.978 63.8847C315.715 64.3445 318.498 64.9186 319.364 64.8438C321.962 64.6196 327.49 61.6125 328.663 56.335C330.149 51.3211 328.268 45.0276 323.369 43.851Z" fill="#135BA4"/>
<path d="M320.522 41.1888C319.631 40.9749 318.697 40.9391 317.742 40.9925C318.509 37.4076 319.193 34.5568 319.468 33.0209C320.662 27.6542 318.874 26.4709 310.631 24.3033C309.117 23.9396 307.445 23.4441 305.664 23.0162C306.455 22.0755 307.022 20.8925 307.232 19.6239C308.32 14.7026 304.963 9.84504 299.775 8.6934C294.586 7.54176 289.436 10.5453 288.349 15.4665C288.049 16.7138 288.128 17.9575 288.316 19.1335C284.999 18.4311 281.948 17.7928 279.433 17.283C274.579 16.306 272.658 17.635 271.564 21.8007C271.179 23.4043 270.448 26.0556 269.678 29.2627C268.783 28.6711 267.867 28.1685 266.709 27.8904C261.809 26.7139 256.884 29.9597 255.622 35.2159C254.381 40.383 257.363 45.6219 262.196 46.688C263.265 46.9447 264.287 47.0018 265.374 46.7917C264.626 49.9097 264.027 52.4042 263.617 53.7191C262.262 58.5762 261.97 60.5789 267.938 62.0122C279.677 64.925 298.21 69.7522 303.552 70.658C308.894 71.5637 310.234 69.9068 311.792 65.3812C312.159 64.2444 312.826 61.8604 313.532 58.9205C314.269 59.3803 315.05 59.6619 315.941 59.8759C320.84 61.0524 325.766 57.8065 327.028 52.5503C328.336 47.4937 325.422 42.3653 320.522 41.1888Z" fill="#1566B7"/>
<path d="M312.084 65.7339C312.452 64.5971 313.118 62.2131 313.824 59.2732C314.562 59.733 315.342 60.0146 316.233 60.2285C321.133 61.4051 326.058 58.1592 327.32 52.903C328.561 47.7359 325.579 42.4971 320.747 41.431C319.856 41.2171 318.922 41.1813 317.967 41.2347C318.734 37.6498 319.418 34.7989 319.693 33.2631C319.8 32.8176 319.907 32.3722 319.903 31.9944C316.24 32.3397 309.982 35.6425 301.592 41.5428C292.276 48.163 283.809 45.753 276.286 46.8676C272.758 47.4338 268.314 49.853 264.405 52.4005C264.255 53.0241 264.127 53.5587 264.041 53.915C262.686 58.7721 262.394 60.7748 268.363 62.208C280.101 65.1208 298.635 69.9481 303.977 70.8538C309.186 71.9164 310.548 70.1704 312.084 65.7339Z" fill="#1976D2"/>
<path d="M295.767 29.3083C303.318 31.2157 307.758 37.8409 305.765 45.7484C304.888 49.401 302.803 52.1982 300.019 53.9797L302.26 58.381L297.093 57.1403L296.324 55.6363C294.107 56.2348 291.751 56.2345 289.278 55.5464C281.727 53.6391 277.377 47.0352 279.37 39.1277C281.145 31.7334 287.949 27.3367 295.767 29.3083ZM290.284 51.3593C291.709 51.7016 293.021 51.7338 294.307 51.4774L292.768 48.4695L296.328 46.5919L297.914 49.7993C299.346 48.5415 300.441 46.7313 301.064 44.5255C302.327 39.2693 299.572 34.6506 294.762 33.4954C289.862 32.3189 285.354 35.0053 284.07 40.3506C282.762 45.4072 285.583 50.1365 290.284 51.3593Z" fill="white"/>
<path d="M93.8973 190.279C94.4029 187.923 95.4283 186.204 99.1358 186.89C99.8182 187.025 101.198 188.966 101.958 189.126C101.837 188.575 102.102 188.02 101.981 187.468C101.363 184.492 104.545 182.446 106.85 182.978C109.155 183.509 110.219 184.579 110.548 186.864C110.713 188.071 109.912 190.417 109.607 190.831C111.075 191.177 112.915 189.978 113.984 190.239C116.083 190.747 116.093 193.227 115.75 195.081C115.602 195.802 115.394 196.973 115.06 198.403C115.509 198.334 115.774 197.779 116.251 197.891C118.414 198.334 119.015 200.834 118.784 202.34C118.516 203.962 117.592 205.499 116.351 206.166C115.789 206.454 114.246 206.468 113.422 206.244C113.152 207.609 112.825 208.486 112.728 209.052C112.362 211.24 112.128 212.36 109.527 211.818C104.313 210.773 96.0344 209.164 93.728 208.504C91.409 207.882 90.5115 206.695 90.75 204.637C90.8226 204.148 93.7746 190.923 93.8973 190.279Z" fill="#3355EA"/>
<path d="M112.515 189.764C114.614 190.271 115.124 191.205 114.781 193.059C114.316 195.685 112.255 205.098 111.889 207.286C111.524 209.474 111.249 210.325 108.609 209.77C103.395 208.725 95.1165 207.116 92.8101 206.456C90.5037 205.796 90.2897 204.872 90.5281 202.814C90.7665 200.756 93.1687 190.684 93.6754 188.456C94.181 186.1 95.1568 185.988 98.8256 186.662C102.662 187.347 108.998 188.883 112.515 189.764Z" fill="#4E75F1"/>
<path d="M104.296 190.292C106.593 190.819 108.854 189.508 109.346 187.364C109.838 185.221 108.374 183.056 106.077 182.529C103.78 182.002 101.519 183.313 101.028 185.457C100.536 187.6 101.999 189.765 104.296 190.292Z" fill="#4E75F1"/>
<path d="M113.773 204.713C115.924 205.173 118.068 203.677 118.56 201.373C119.053 199.068 117.709 196.827 115.559 196.367C113.408 195.907 111.264 197.402 110.772 199.707C110.279 202.011 111.623 204.252 113.773 204.713Z" fill="#4E75F1"/>
<path d="M102.407 206.1C100.595 203.25 105.334 197.18 103.237 192.701C102.399 190.935 100.747 188.778 98.9807 186.712C98.9034 186.687 98.8647 186.675 98.7749 186.688C95.0674 186.002 94.1303 186.126 93.6247 188.483C93.118 190.711 90.7158 200.782 90.4774 202.841C90.239 204.899 90.4791 205.874 92.7594 206.483C94.3698 206.918 98.9404 207.841 103.305 208.739C103.181 207.802 102.89 206.854 102.407 206.1Z" fill="#355ADC"/>
<path d="M102.959 197.395L107.531 198.446L106.493 203.107C105.267 203.864 103.328 204.048 101.937 203.727C98.2406 202.874 96.5831 200.074 97.3739 196.571C98.1159 193.352 100.847 191.245 104.299 192.062C105.895 192.407 106.917 193.079 107.632 194.037L106.424 195.397C105.994 194.745 105.063 194.188 104.072 193.953C101.882 193.459 99.9903 194.556 99.396 197.054C98.8392 199.437 100.013 201.354 102.318 201.886C103.194 202.083 104.311 201.932 104.835 201.632L105.231 199.88L102.526 199.262L102.959 197.395Z" fill="white"/>
</svg>
